<svg width="324" height="21" viewBox="0 0 324 21" fill="none" xmlns="http://www.w3.org/2000/svg">
<path d="M4.88517 2C3.33877 2 2.08517 3.2536 2.08517 4.8V16C2.08517 17.5464 3.33877 18.8 4.88517 18.8H16.0852C17.6316 18.8 18.8852 17.5464 18.8852 16V4.8C18.8852 3.2536 17.6316 2 16.0852 2H4.88517ZM5.71955 5.60001H8.89456L11.1492 8.80392L13.8852 5.60001H14.8852L11.6008 9.44532L15.6508 15.2H12.4766L9.86018 11.4828L6.68518 15.2H5.68518L9.40862 10.8414L5.71955 5.60001ZM7.2508 6.40001L12.8938 14.4H14.1196L8.47659 6.40001H7.2508Z" fill="#004884"/>
<path d="M28.0902 14.4C27.6095 14.4 27.1709 14.3207 26.7742 14.162C26.3775 14.008 26.0345 13.7887 25.7452 13.504C25.4605 13.224 25.2389 12.8903 25.0802 12.503C24.9262 12.111 24.8492 11.684 24.8492 11.222C24.8492 10.7553 24.9262 10.3307 25.0802 9.948C25.2389 9.56067 25.4629 9.227 25.7522 8.947C26.0462 8.66233 26.3939 8.443 26.7952 8.289C27.1965 8.135 27.6375 8.058 28.1182 8.058C28.5942 8.058 29.0282 8.13267 29.4202 8.282C29.8169 8.43133 30.1599 8.64367 30.4492 8.919C30.7385 9.18967 30.9602 9.514 31.1142 9.892C31.2729 10.27 31.3522 10.6877 31.3522 11.145C31.3522 11.537 31.3055 11.8753 31.2122 12.16C31.1235 12.44 30.9929 12.657 30.8202 12.811C30.6475 12.9603 30.4399 13.035 30.1972 13.035C29.9592 13.035 29.7679 12.9627 29.6232 12.818C29.4785 12.6733 29.4062 12.4703 29.4062 12.209V11.656L29.4622 11.208L29.3922 10.508V9.451H29.8472V12.104C29.8472 12.3 29.8892 12.4377 29.9732 12.517C30.0572 12.5963 30.1599 12.636 30.2812 12.636C30.4259 12.636 30.5519 12.5777 30.6592 12.461C30.7665 12.3443 30.8482 12.1763 30.9042 11.957C30.9649 11.733 30.9952 11.4647 30.9952 11.152C30.9952 10.7413 30.9252 10.368 30.7852 10.032C30.6452 9.696 30.4469 9.40667 30.1902 9.164C29.9335 8.92133 29.6302 8.737 29.2802 8.611C28.9302 8.48033 28.5429 8.415 28.1182 8.415C27.6935 8.415 27.3039 8.48267 26.9492 8.618C26.5945 8.75333 26.2889 8.947 26.0322 9.199C25.7802 9.44633 25.5842 9.74267 25.4442 10.088C25.3042 10.4287 25.2342 10.8067 25.2342 11.222C25.2342 11.6373 25.3019 12.0177 25.4372 12.363C25.5772 12.7083 25.7732 13.0047 26.0252 13.252C26.2772 13.504 26.5782 13.6977 26.9282 13.833C27.2782 13.973 27.6655 14.043 28.0902 14.043C28.3002 14.043 28.5242 14.0173 28.7622 13.966C29.0049 13.9147 29.2289 13.8377 29.4342 13.735L29.5532 14.078C29.3432 14.1853 29.1052 14.2647 28.8392 14.316C28.5732 14.372 28.3235 14.4 28.0902 14.4ZM28.0062 13.035C27.6749 13.035 27.3785 12.958 27.1172 12.804C26.8559 12.6453 26.6482 12.4307 26.4942 12.16C26.3449 11.8847 26.2702 11.572 26.2702 11.222C26.2702 10.872 26.3449 10.5617 26.4942 10.291C26.6482 10.0203 26.8559 9.808 27.1172 9.654C27.3785 9.5 27.6749 9.423 28.0062 9.423C28.3282 9.423 28.6129 9.49533 28.8602 9.64C29.1122 9.78467 29.3082 9.99233 29.4482 10.263C29.5929 10.529 29.6652 10.8487 29.6652 11.222C29.6652 11.5953 29.5929 11.9173 29.4482 12.188C29.3082 12.4587 29.1145 12.6687 28.8672 12.818C28.6199 12.9627 28.3329 13.035 28.0062 13.035ZM28.0692 12.629C28.3212 12.629 28.5475 12.5707 28.7482 12.454C28.9535 12.3373 29.1122 12.174 29.2242 11.964C29.3409 11.7493 29.3992 11.502 29.3992 11.222C29.3992 10.9373 29.3409 10.6923 29.2242 10.487C29.1122 10.277 28.9535 10.116 28.7482 10.004C28.5475 9.88733 28.3212 9.829 28.0692 9.829C27.8079 9.829 27.5769 9.88733 27.3762 10.004C27.1755 10.116 27.0169 10.277 26.9002 10.487C26.7882 10.697 26.7322 10.942 26.7322 11.222C26.7322 11.502 26.7882 11.747 26.9002 11.957C27.0169 12.167 27.1755 12.3327 27.3762 12.454C27.5769 12.5707 27.8079 12.629 28.0692 12.629ZM33.8666 13.042C33.5026 13.042 33.1526 12.9837 32.8166 12.867C32.4853 12.7457 32.2286 12.5917 32.0466 12.405L32.2496 12.006C32.4223 12.174 32.6533 12.3163 32.9426 12.433C33.2366 12.545 33.5446 12.601 33.8666 12.601C34.1746 12.601 34.4243 12.5637 34.6156 12.489C34.8116 12.4097 34.954 12.3047 35.0426 12.174C35.136 12.0433 35.1826 11.8987 35.1826 11.74C35.1826 11.5487 35.1266 11.3947 35.0146 11.278C34.9073 11.1613 34.765 11.0703 34.5876 11.005C34.4103 10.935 34.2143 10.8743 33.9996 10.823C33.785 10.7717 33.5703 10.718 33.3556 10.662C33.141 10.6013 32.9426 10.522 32.7606 10.424C32.5833 10.326 32.4386 10.1977 32.3266 10.039C32.2193 9.87567 32.1656 9.66333 32.1656 9.402C32.1656 9.15933 32.2286 8.93767 32.3546 8.737C32.4853 8.53167 32.6836 8.36833 32.9496 8.247C33.2156 8.121 33.5563 8.058 33.9716 8.058C34.247 8.058 34.52 8.09767 34.7906 8.177C35.0613 8.25167 35.2946 8.35667 35.4906 8.492L35.3156 8.905C35.1056 8.765 34.8816 8.66233 34.6436 8.597C34.4103 8.53167 34.184 8.499 33.9646 8.499C33.6706 8.499 33.428 8.53867 33.2366 8.618C33.0453 8.69733 32.903 8.80467 32.8096 8.94C32.721 9.07067 32.6766 9.22 32.6766 9.388C32.6766 9.57933 32.7303 9.73333 32.8376 9.85C32.9496 9.96667 33.0943 10.0577 33.2716 10.123C33.4536 10.1883 33.652 10.2467 33.8666 10.298C34.0813 10.3493 34.2936 10.4053 34.5036 10.466C34.7183 10.5267 34.9143 10.606 35.0916 10.704C35.2736 10.7973 35.4183 10.9233 35.5256 11.082C35.6376 11.2407 35.6936 11.4483 35.6936 11.705C35.6936 11.943 35.6283 12.1647 35.4976 12.37C35.367 12.5707 35.1663 12.734 34.8956 12.86C34.6296 12.9813 34.2866 13.042 33.8666 13.042ZM37.2843 10.473H39.8743V10.921H37.2843V10.473ZM37.3403 13H36.8223V8.1H40.1823V8.548H37.3403V13ZM43.3184 13.042C42.9498 13.042 42.6091 12.9813 42.2964 12.86C41.9838 12.734 41.7131 12.559 41.4844 12.335C41.2558 12.111 41.0761 11.8473 40.9454 11.544C40.8194 11.2407 40.7564 10.9093 40.7564 10.55C40.7564 10.1907 40.8194 9.85933 40.9454 9.556C41.0761 9.25267 41.2558 8.989 41.4844 8.765C41.7178 8.541 41.9908 8.36833 42.3034 8.247C42.6161 8.121 42.9568 8.058 43.3254 8.058C43.6801 8.058 44.0138 8.11867 44.3264 8.24C44.6391 8.35667 44.9028 8.534 45.1174 8.772L44.7884 9.101C44.5878 8.89567 44.3661 8.74867 44.1234 8.66C43.8808 8.56667 43.6194 8.52 43.3394 8.52C43.0454 8.52 42.7724 8.57133 42.5204 8.674C42.2684 8.772 42.0491 8.91433 41.8624 9.101C41.6758 9.283 41.5288 9.49767 41.4214 9.745C41.3188 9.98767 41.2674 10.256 41.2674 10.55C41.2674 10.844 41.3188 11.1147 41.4214 11.362C41.5288 11.6047 41.6758 11.8193 41.8624 12.006C42.0491 12.188 42.2684 12.3303 42.5204 12.433C42.7724 12.531 43.0454 12.58 43.3394 12.58C43.6194 12.58 43.8808 12.5333 44.1234 12.44C44.3661 12.3467 44.5878 12.1973 44.7884 11.992L45.1174 12.321C44.9028 12.559 44.6391 12.7387 44.3264 12.86C44.0138 12.9813 43.6778 13.042 43.3184 13.042ZM46.967 13.035C46.6636 13.035 46.3766 12.993 46.106 12.909C45.8353 12.8203 45.623 12.7107 45.469 12.58L45.693 12.188C45.8423 12.3 46.0336 12.398 46.267 12.482C46.5003 12.5613 46.7453 12.601 47.002 12.601C47.352 12.601 47.604 12.5473 47.758 12.44C47.912 12.328 47.989 12.181 47.989 11.999C47.989 11.8637 47.9446 11.7587 47.856 11.684C47.772 11.6047 47.66 11.5463 47.52 11.509C47.38 11.467 47.2236 11.432 47.051 11.404C46.8783 11.376 46.7056 11.3433 46.533 11.306C46.365 11.2687 46.211 11.215 46.071 11.145C45.931 11.0703 45.8166 10.97 45.728 10.844C45.644 10.718 45.602 10.55 45.602 10.34C45.602 10.1393 45.658 9.95967 45.77 9.801C45.882 9.64233 46.0453 9.51867 46.26 9.43C46.4793 9.33667 46.7453 9.29 47.058 9.29C47.296 9.29 47.534 9.32267 47.772 9.388C48.01 9.44867 48.206 9.53033 48.36 9.633L48.143 10.032C47.9796 9.92 47.8046 9.84067 47.618 9.794C47.4313 9.74267 47.2446 9.717 47.058 9.717C46.7266 9.717 46.4816 9.77533 46.323 9.892C46.169 10.004 46.092 10.1487 46.092 10.326C46.092 10.466 46.134 10.5757 46.218 10.655C46.3066 10.7343 46.421 10.7973 46.561 10.844C46.7056 10.886 46.862 10.921 47.03 10.949C47.2026 10.977 47.373 11.012 47.541 11.054C47.7136 11.0913 47.87 11.145 48.01 11.215C48.1546 11.2803 48.269 11.376 48.353 11.502C48.4416 11.6233 48.486 11.7843 48.486 11.985C48.486 12.1997 48.4253 12.3863 48.304 12.545C48.1873 12.699 48.0146 12.8203 47.786 12.909C47.562 12.993 47.289 13.035 46.967 13.035ZM50.9169 13.035C50.6043 13.035 50.3313 12.9767 50.0979 12.86C49.8646 12.7433 49.6826 12.5683 49.5519 12.335C49.4259 12.1017 49.3629 11.81 49.3629 11.46V9.325H49.8599V11.404C49.8599 11.796 49.9556 12.0923 50.1469 12.293C50.3429 12.489 50.6159 12.587 50.9659 12.587C51.2226 12.587 51.4443 12.5357 51.6309 12.433C51.8223 12.3257 51.9669 12.1717 52.0649 11.971C52.1676 11.7703 52.2189 11.53 52.2189 11.25V9.325H52.7159V13H52.2399V11.992L52.3169 12.174C52.2003 12.4447 52.0183 12.657 51.7709 12.811C51.5283 12.9603 51.2436 13.035 50.9169 13.035ZM55.9981 13.035C55.6807 13.035 55.3937 12.9627 55.1371 12.818C54.8804 12.6687 54.6751 12.4563 54.5211 12.181C54.3717 11.901 54.2971 11.5603 54.2971 11.159C54.2971 10.7577 54.3717 10.4193 54.5211 10.144C54.6704 9.864 54.8734 9.65167 55.1301 9.507C55.3867 9.36233 55.6761 9.29 55.9981 9.29C56.3481 9.29 56.6607 9.36933 56.9361 9.528C57.2161 9.682 57.4354 9.90133 57.5941 10.186C57.7527 10.466 57.8321 10.7903 57.8321 11.159C57.8321 11.5323 57.7527 11.859 57.5941 12.139C57.4354 12.419 57.2161 12.6383 56.9361 12.797C56.6607 12.9557 56.3481 13.035 55.9981 13.035ZM54.1011 14.358V9.325H54.5771V10.431L54.5281 11.166L54.5981 11.908V14.358H54.1011ZM55.9631 12.594C56.2244 12.594 56.4577 12.5357 56.6631 12.419C56.8684 12.2977 57.0317 12.1297 57.1531 11.915C57.2744 11.6957 57.3351 11.4437 57.3351 11.159C57.3351 10.8743 57.2744 10.6247 57.1531 10.41C57.0317 10.1953 56.8684 10.0273 56.6631 9.906C56.4577 9.78467 56.2244 9.724 55.9631 9.724C55.7017 9.724 55.4661 9.78467 55.2561 9.906C55.0507 10.0273 54.8874 10.1953 54.7661 10.41C54.6494 10.6247 54.5911 10.8743 54.5911 11.159C54.5911 11.4437 54.6494 11.6957 54.7661 11.915C54.8874 12.1297 55.0507 12.2977 55.2561 12.419C55.4661 12.5357 55.7017 12.594 55.9631 12.594ZM60.4062 13.035C60.0235 13.035 59.6875 12.9557 59.3982 12.797C59.1089 12.6337 58.8825 12.412 58.7192 12.132C58.5559 11.8473 58.4742 11.523 58.4742 11.159C58.4742 10.795 58.5512 10.473 58.7052 10.193C58.8639 9.913 59.0785 9.69367 59.3492 9.535C59.6245 9.37167 59.9325 9.29 60.2732 9.29C60.6185 9.29 60.9242 9.36933 61.1902 9.528C61.4609 9.682 61.6732 9.90133 61.8272 10.186C61.9812 10.466 62.0582 10.7903 62.0582 11.159C62.0582 11.1823 62.0559 11.208 62.0512 11.236C62.0512 11.2593 62.0512 11.285 62.0512 11.313H58.8522V10.942H61.7852L61.5892 11.089C61.5892 10.823 61.5309 10.5873 61.4142 10.382C61.3022 10.172 61.1482 10.0087 60.9522 9.892C60.7562 9.77533 60.5299 9.717 60.2732 9.717C60.0212 9.717 59.7949 9.77533 59.5942 9.892C59.3935 10.0087 59.2372 10.172 59.1252 10.382C59.0132 10.592 58.9572 10.8323 58.9572 11.103V11.18C58.9572 11.46 59.0179 11.7073 59.1392 11.922C59.2652 12.132 59.4379 12.2977 59.6572 12.419C59.8812 12.5357 60.1355 12.594 60.4202 12.594C60.6442 12.594 60.8519 12.5543 61.0432 12.475C61.2392 12.3957 61.4072 12.2743 61.5472 12.111L61.8272 12.433C61.6639 12.629 61.4585 12.7783 61.2112 12.881C60.9685 12.9837 60.7002 13.035 60.4062 13.035ZM63.0698 13V9.325H63.5458V10.326L63.4968 10.151C63.5995 9.871 63.7721 9.65867 64.0148 9.514C64.2575 9.36467 64.5585 9.29 64.9178 9.29V9.773C64.8991 9.773 64.8805 9.773 64.8618 9.773C64.8431 9.76833 64.8245 9.766 64.8058 9.766C64.4185 9.766 64.1151 9.885 63.8958 10.123C63.6765 10.3563 63.5668 10.69 63.5668 11.124V13H63.0698ZM66.9269 13L65.2959 9.325H65.8139L67.3119 12.734H67.0669L68.5859 9.325H69.0759L67.4379 13H66.9269ZM69.7759 13V9.325H70.2729V13H69.7759ZM70.0279 8.513C69.9252 8.513 69.8389 8.478 69.7689 8.408C69.6989 8.338 69.6639 8.254 69.6639 8.156C69.6639 8.058 69.6989 7.97633 69.7689 7.911C69.8389 7.841 69.9252 7.806 70.0279 7.806C70.1305 7.806 70.2169 7.83867 70.2869 7.904C70.3569 7.96933 70.3919 8.051 70.3919 8.149C70.3919 8.25167 70.3569 8.338 70.2869 8.408C70.2215 8.478 70.1352 8.513 70.0279 8.513ZM72.6427 13.035C72.3394 13.035 72.0524 12.993 71.7817 12.909C71.5111 12.8203 71.2987 12.7107 71.1447 12.58L71.3687 12.188C71.5181 12.3 71.7094 12.398 71.9427 12.482C72.1761 12.5613 72.4211 12.601 72.6777 12.601C73.0277 12.601 73.2797 12.5473 73.4337 12.44C73.5877 12.328 73.6647 12.181 73.6647 11.999C73.6647 11.8637 73.6204 11.7587 73.5317 11.684C73.4477 11.6047 73.3357 11.5463 73.1957 11.509C73.0557 11.467 72.8994 11.432 72.7267 11.404C72.5541 11.376 72.3814 11.3433 72.2087 11.306C72.0407 11.2687 71.8867 11.215 71.7467 11.145C71.6067 11.0703 71.4924 10.97 71.4037 10.844C71.3197 10.718 71.2777 10.55 71.2777 10.34C71.2777 10.1393 71.3337 9.95967 71.4457 9.801C71.5577 9.64233 71.7211 9.51867 71.9357 9.43C72.1551 9.33667 72.4211 9.29 72.7337 9.29C72.9717 9.29 73.2097 9.32267 73.4477 9.388C73.6857 9.44867 73.8817 9.53033 74.0357 9.633L73.8187 10.032C73.6554 9.92 73.4804 9.84067 73.2937 9.794C73.1071 9.74267 72.9204 9.717 72.7337 9.717C72.4024 9.717 72.1574 9.77533 71.9987 9.892C71.8447 10.004 71.7677 10.1487 71.7677 10.326C71.7677 10.466 71.8097 10.5757 71.8937 10.655C71.9824 10.7343 72.0967 10.7973 72.2367 10.844C72.3814 10.886 72.5377 10.921 72.7057 10.949C72.8784 10.977 73.0487 11.012 73.2167 11.054C73.3894 11.0913 73.5457 11.145 73.6857 11.215C73.8304 11.2803 73.9447 11.376 74.0287 11.502C74.1174 11.6233 74.1617 11.7843 74.1617 11.985C74.1617 12.1997 74.1011 12.3863 73.9797 12.545C73.8631 12.699 73.6904 12.8203 73.4617 12.909C73.2377 12.993 72.9647 13.035 72.6427 13.035ZM76.5717 13.035C76.217 13.035 75.8974 12.9557 75.6127 12.797C75.3327 12.6337 75.111 12.412 74.9477 12.132C74.7844 11.8473 74.7027 11.523 74.7027 11.159C74.7027 10.7903 74.7844 10.466 74.9477 10.186C75.111 9.906 75.3327 9.68667 75.6127 9.528C75.8927 9.36933 76.2124 9.29 76.5717 9.29C76.9357 9.29 77.2577 9.36933 77.5377 9.528C77.8224 9.68667 78.044 9.906 78.2027 10.186C78.366 10.466 78.4477 10.7903 78.4477 11.159C78.4477 11.523 78.366 11.8473 78.2027 12.132C78.044 12.412 77.8224 12.6337 77.5377 12.797C77.253 12.9557 76.931 13.035 76.5717 13.035ZM76.5717 12.594C76.8377 12.594 77.0734 12.5357 77.2787 12.419C77.484 12.2977 77.645 12.1297 77.7617 11.915C77.883 11.6957 77.9437 11.4437 77.9437 11.159C77.9437 10.8697 77.883 10.6177 77.7617 10.403C77.645 10.1883 77.484 10.0227 77.2787 9.906C77.0734 9.78467 76.84 9.724 76.5787 9.724C76.3174 9.724 76.084 9.78467 75.8787 9.906C75.6734 10.0227 75.51 10.1883 75.3887 10.403C75.2674 10.6177 75.2067 10.8697 75.2067 11.159C75.2067 11.4437 75.2674 11.6957 75.3887 11.915C75.51 12.1297 75.6734 12.2977 75.8787 12.419C76.084 12.5357 76.315 12.594 76.5717 12.594ZM79.4624 13V9.325H79.9384V10.326L79.8894 10.151C79.9921 9.871 80.1647 9.65867 80.4074 9.514C80.6501 9.36467 80.9511 9.29 81.3104 9.29V9.773C81.2917 9.773 81.2731 9.773 81.2544 9.773C81.2357 9.76833 81.2171 9.766 81.1984 9.766C80.8111 9.766 80.5077 9.885 80.2884 10.123C80.0691 10.3563 79.9594 10.69 79.9594 11.124V13H79.4624Z" fill="#004884"/>
<path d="M108.201 1.20001C105.333 1.20001 103.001 3.53202 103.001 6.40002V13.6C103.001 16.468 105.333 18.8 108.201 18.8H115.402C118.27 18.8 120.602 16.468 120.602 13.6V6.40002C120.602 3.53202 118.27 1.20001 115.402 1.20001H108.201ZM116.602 4.40002C117.042 4.40002 117.402 4.76002 117.402 5.20002C117.402 5.64002 117.042 6.00002 116.602 6.00002C116.162 6.00002 115.802 5.64002 115.802 5.20002C115.802 4.76002 116.162 4.40002 116.602 4.40002ZM111.802 5.60002C114.23 5.60002 116.202 7.57202 116.202 10C116.202 12.428 114.23 14.4 111.802 14.4C109.373 14.4 107.401 12.428 107.401 10C107.401 7.57202 109.373 5.60002 111.802 5.60002ZM111.802 6.40002C109.817 6.40002 108.201 8.01602 108.201 10C108.201 11.984 109.817 13.6 111.802 13.6C113.786 13.6 115.402 11.984 115.402 10C115.402 8.01602 113.786 6.40002 111.802 6.40002Z" fill="#004884"/>
<path d="M127.482 13.035C127.178 13.035 126.891 12.993 126.621 12.909C126.35 12.8203 126.138 12.7107 125.984 12.58L126.208 12.188C126.357 12.3 126.548 12.398 126.782 12.482C127.015 12.5613 127.26 12.601 127.517 12.601C127.867 12.601 128.119 12.5473 128.273 12.44C128.427 12.328 128.504 12.181 128.504 11.999C128.504 11.8637 128.459 11.7587 128.371 11.684C128.287 11.6047 128.175 11.5463 128.035 11.509C127.895 11.467 127.738 11.432 127.566 11.404C127.393 11.376 127.22 11.3433 127.048 11.306C126.88 11.2687 126.726 11.215 126.586 11.145C126.446 11.0703 126.331 10.97 126.243 10.844C126.159 10.718 126.117 10.55 126.117 10.34C126.117 10.1393 126.173 9.95967 126.285 9.801C126.397 9.64233 126.56 9.51867 126.775 9.43C126.994 9.33667 127.26 9.29 127.573 9.29C127.811 9.29 128.049 9.32267 128.287 9.388C128.525 9.44867 128.721 9.53033 128.875 9.633L128.658 10.032C128.494 9.92 128.319 9.84067 128.133 9.794C127.946 9.74267 127.759 9.717 127.573 9.717C127.241 9.717 126.996 9.77533 126.838 9.892C126.684 10.004 126.607 10.1487 126.607 10.326C126.607 10.466 126.649 10.5757 126.733 10.655C126.821 10.7343 126.936 10.7973 127.076 10.844C127.22 10.886 127.377 10.921 127.545 10.949C127.717 10.977 127.888 11.012 128.056 11.054C128.228 11.0913 128.385 11.145 128.525 11.215C128.669 11.2803 128.784 11.376 128.868 11.502C128.956 11.6233 129.001 11.7843 129.001 11.985C129.001 12.1997 128.94 12.3863 128.819 12.545C128.702 12.699 128.529 12.8203 128.301 12.909C128.077 12.993 127.804 13.035 127.482 13.035ZM131.431 13.035C131.119 13.035 130.846 12.9767 130.612 12.86C130.379 12.7433 130.197 12.5683 130.066 12.335C129.94 12.1017 129.877 11.81 129.877 11.46V9.325H130.374V11.404C130.374 11.796 130.47 12.0923 130.661 12.293C130.857 12.489 131.13 12.587 131.48 12.587C131.737 12.587 131.959 12.5357 132.145 12.433C132.337 12.3257 132.481 12.1717 132.579 11.971C132.682 11.7703 132.733 11.53 132.733 11.25V9.325H133.23V13H132.754V11.992L132.831 12.174C132.715 12.4447 132.533 12.657 132.285 12.811C132.043 12.9603 131.758 13.035 131.431 13.035ZM136.513 13.035C136.195 13.035 135.908 12.9627 135.652 12.818C135.395 12.6687 135.19 12.4563 135.036 12.181C134.886 11.901 134.812 11.5603 134.812 11.159C134.812 10.7577 134.886 10.4193 135.036 10.144C135.185 9.864 135.388 9.65167 135.645 9.507C135.901 9.36233 136.191 9.29 136.513 9.29C136.863 9.29 137.175 9.36933 137.451 9.528C137.731 9.682 137.95 9.90133 138.109 10.186C138.267 10.466 138.347 10.7903 138.347 11.159C138.347 11.5323 138.267 11.859 138.109 12.139C137.95 12.419 137.731 12.6383 137.451 12.797C137.175 12.9557 136.863 13.035 136.513 13.035ZM134.616 14.358V9.325H135.092V10.431L135.043 11.166L135.113 11.908V14.358H134.616ZM136.478 12.594C136.739 12.594 136.972 12.5357 137.178 12.419C137.383 12.2977 137.546 12.1297 137.668 11.915C137.789 11.6957 137.85 11.4437 137.85 11.159C137.85 10.8743 137.789 10.6247 137.668 10.41C137.546 10.1953 137.383 10.0273 137.178 9.906C136.972 9.78467 136.739 9.724 136.478 9.724C136.216 9.724 135.981 9.78467 135.771 9.906C135.565 10.0273 135.402 10.1953 135.281 10.41C135.164 10.6247 135.106 10.8743 135.106 11.159C135.106 11.4437 135.164 11.6957 135.281 11.915C135.402 12.1297 135.565 12.2977 135.771 12.419C135.981 12.5357 136.216 12.594 136.478 12.594ZM140.921 13.035C140.538 13.035 140.202 12.9557 139.913 12.797C139.623 12.6337 139.397 12.412 139.234 12.132C139.07 11.8473 138.989 11.523 138.989 11.159C138.989 10.795 139.066 10.473 139.22 10.193C139.378 9.913 139.593 9.69367 139.864 9.535C140.139 9.37167 140.447 9.29 140.788 9.29C141.133 9.29 141.439 9.36933 141.705 9.528C141.975 9.682 142.188 9.90133 142.342 10.186C142.496 10.466 142.573 10.7903 142.573 11.159C142.573 11.1823 142.57 11.208 142.566 11.236C142.566 11.2593 142.566 11.285 142.566 11.313H139.367V10.942H142.3L142.104 11.089C142.104 10.823 142.045 10.5873 141.929 10.382C141.817 10.172 141.663 10.0087 141.467 9.892C141.271 9.77533 141.044 9.717 140.788 9.717C140.536 9.717 140.309 9.77533 140.109 9.892C139.908 10.0087 139.752 10.172 139.64 10.382C139.528 10.592 139.472 10.8323 139.472 11.103V11.18C139.472 11.46 139.532 11.7073 139.654 11.922C139.78 12.132 139.952 12.2977 140.172 12.419C140.396 12.5357 140.65 12.594 140.935 12.594C141.159 12.594 141.366 12.5543 141.558 12.475C141.754 12.3957 141.922 12.2743 142.062 12.111L142.342 12.433C142.178 12.629 141.973 12.7783 141.726 12.881C141.483 12.9837 141.215 13.035 140.921 13.035ZM143.584 13V9.325H144.06V10.326L144.011 10.151C144.114 9.871 144.287 9.65867 144.529 9.514C144.772 9.36467 145.073 9.29 145.432 9.29V9.773C145.414 9.773 145.395 9.773 145.376 9.773C145.358 9.76833 145.339 9.766 145.32 9.766C144.933 9.766 144.63 9.885 144.41 10.123C144.191 10.3563 144.081 10.69 144.081 11.124V13H143.584ZM146.58 13V8.863C146.58 8.53633 146.676 8.27267 146.867 8.072C147.059 7.87133 147.334 7.771 147.693 7.771C147.833 7.771 147.969 7.78967 148.099 7.827C148.23 7.86433 148.34 7.92267 148.428 8.002L148.26 8.373C148.19 8.31233 148.109 8.268 148.015 8.24C147.922 8.20733 147.822 8.191 147.714 8.191C147.504 8.191 147.343 8.24933 147.231 8.366C147.119 8.48267 147.063 8.65533 147.063 8.884V9.444L147.077 9.675V13H146.58ZM145.922 9.738V9.325H148.197V9.738H145.922ZM148.869 13V9.325H149.366V13H148.869ZM149.121 8.513C149.019 8.513 148.932 8.478 148.862 8.408C148.792 8.338 148.757 8.254 148.757 8.156C148.757 8.058 148.792 7.97633 148.862 7.911C148.932 7.841 149.019 7.806 149.121 7.806C149.224 7.806 149.31 7.83867 149.38 7.904C149.45 7.96933 149.485 8.051 149.485 8.149C149.485 8.25167 149.45 8.338 149.38 8.408C149.315 8.478 149.229 8.513 149.121 8.513ZM152.638 9.29C152.937 9.29 153.198 9.34833 153.422 9.465C153.651 9.577 153.828 9.74967 153.954 9.983C154.085 10.2163 154.15 10.5103 154.15 10.865V13H153.653V10.914C153.653 10.5267 153.555 10.235 153.359 10.039C153.168 9.83833 152.897 9.738 152.547 9.738C152.286 9.738 152.057 9.79167 151.861 9.899C151.67 10.0017 151.52 10.1533 151.413 10.354C151.31 10.55 151.259 10.788 151.259 11.068V13H150.762V9.325H151.238V10.333L151.161 10.144C151.278 9.878 151.464 9.67033 151.721 9.521C151.978 9.367 152.283 9.29 152.638 9.29ZM157.796 13V12.188L157.775 12.055V10.697C157.775 10.3843 157.686 10.144 157.509 9.976C157.336 9.808 157.077 9.724 156.732 9.724C156.494 9.724 156.267 9.76367 156.053 9.843C155.838 9.92233 155.656 10.0273 155.507 10.158L155.283 9.787C155.469 9.62833 155.693 9.507 155.955 9.423C156.216 9.33433 156.491 9.29 156.781 9.29C157.257 9.29 157.623 9.409 157.88 9.647C158.141 9.88033 158.272 10.2373 158.272 10.718V13H157.796ZM156.529 13.035C156.253 13.035 156.013 12.9907 155.808 12.902C155.607 12.8087 155.453 12.6827 155.346 12.524C155.238 12.3607 155.185 12.174 155.185 11.964C155.185 11.7727 155.229 11.6 155.318 11.446C155.411 11.2873 155.56 11.1613 155.766 11.068C155.976 10.97 156.256 10.921 156.606 10.921H157.873V11.292H156.62C156.265 11.292 156.018 11.355 155.878 11.481C155.742 11.607 155.675 11.7633 155.675 11.95C155.675 12.16 155.756 12.328 155.92 12.454C156.083 12.58 156.312 12.643 156.606 12.643C156.886 12.643 157.126 12.58 157.327 12.454C157.532 12.3233 157.681 12.1367 157.775 11.894L157.887 12.237C157.793 12.4797 157.63 12.6733 157.397 12.818C157.168 12.9627 156.879 13.035 156.529 13.035ZM161.497 9.29C161.796 9.29 162.057 9.34833 162.281 9.465C162.51 9.577 162.687 9.74967 162.813 9.983C162.944 10.2163 163.009 10.5103 163.009 10.865V13H162.512V10.914C162.512 10.5267 162.414 10.235 162.218 10.039C162.027 9.83833 161.756 9.738 161.406 9.738C161.145 9.738 160.916 9.79167 160.72 9.899C160.529 10.0017 160.38 10.1533 160.272 10.354C160.17 10.55 160.118 10.788 160.118 11.068V13H159.621V9.325H160.097V10.333L160.02 10.144C160.137 9.878 160.324 9.67033 160.58 9.521C160.837 9.367 161.143 9.29 161.497 9.29ZM165.878 13.035C165.514 13.035 165.187 12.9557 164.898 12.797C164.613 12.6337 164.389 12.412 164.226 12.132C164.063 11.8473 163.981 11.523 163.981 11.159C163.981 10.7903 164.063 10.466 164.226 10.186C164.389 9.906 164.613 9.68667 164.898 9.528C165.187 9.36933 165.514 9.29 165.878 9.29C166.191 9.29 166.473 9.35067 166.725 9.472C166.977 9.59333 167.175 9.77533 167.32 10.018L166.949 10.27C166.823 10.0833 166.667 9.94567 166.48 9.857C166.293 9.76833 166.09 9.724 165.871 9.724C165.61 9.724 165.374 9.78467 165.164 9.906C164.954 10.0227 164.788 10.1883 164.667 10.403C164.546 10.6177 164.485 10.8697 164.485 11.159C164.485 11.4483 164.546 11.7003 164.667 11.915C164.788 12.1297 164.954 12.2977 165.164 12.419C165.374 12.5357 165.61 12.594 165.871 12.594C166.09 12.594 166.293 12.5497 166.48 12.461C166.667 12.3723 166.823 12.237 166.949 12.055L167.32 12.307C167.175 12.545 166.977 12.727 166.725 12.853C166.473 12.9743 166.191 13.035 165.878 13.035ZM168.242 13V9.325H168.739V13H168.242ZM168.494 8.513C168.391 8.513 168.305 8.478 168.235 8.408C168.165 8.338 168.13 8.254 168.13 8.156C168.13 8.058 168.165 7.97633 168.235 7.911C168.305 7.841 168.391 7.806 168.494 7.806C168.596 7.806 168.683 7.83867 168.753 7.904C168.823 7.96933 168.858 8.051 168.858 8.149C168.858 8.25167 168.823 8.338 168.753 8.408C168.687 8.478 168.601 8.513 168.494 8.513ZM171.682 13.035C171.3 13.035 170.964 12.9557 170.674 12.797C170.385 12.6337 170.159 12.412 169.995 12.132C169.832 11.8473 169.75 11.523 169.75 11.159C169.75 10.795 169.827 10.473 169.981 10.193C170.14 9.913 170.355 9.69367 170.625 9.535C170.901 9.37167 171.209 9.29 171.549 9.29C171.895 9.29 172.2 9.36933 172.466 9.528C172.737 9.682 172.949 9.90133 173.103 10.186C173.257 10.466 173.334 10.7903 173.334 11.159C173.334 11.1823 173.332 11.208 173.327 11.236C173.327 11.2593 173.327 11.285 173.327 11.313H170.128V10.942H173.061L172.865 11.089C172.865 10.823 172.807 10.5873 172.69 10.382C172.578 10.172 172.424 10.0087 172.228 9.892C172.032 9.77533 171.806 9.717 171.549 9.717C171.297 9.717 171.071 9.77533 170.87 9.892C170.67 10.0087 170.513 10.172 170.401 10.382C170.289 10.592 170.233 10.8323 170.233 11.103V11.18C170.233 11.46 170.294 11.7073 170.415 11.922C170.541 12.132 170.714 12.2977 170.933 12.419C171.157 12.5357 171.412 12.594 171.696 12.594C171.92 12.594 172.128 12.5543 172.319 12.475C172.515 12.3957 172.683 12.2743 172.823 12.111L173.103 12.433C172.94 12.629 172.735 12.7783 172.487 12.881C172.245 12.9837 171.976 13.035 171.682 13.035ZM174.346 13V9.325H174.822V10.326L174.773 10.151C174.876 9.871 175.048 9.65867 175.291 9.514C175.534 9.36467 175.835 9.29 176.194 9.29V9.773C176.175 9.773 176.157 9.773 176.138 9.773C176.119 9.76833 176.101 9.766 176.082 9.766C175.695 9.766 175.391 9.885 175.172 10.123C174.953 10.3563 174.843 10.69 174.843 11.124V13H174.346ZM179.131 13V12.188L179.11 12.055V10.697C179.11 10.3843 179.021 10.144 178.844 9.976C178.671 9.808 178.412 9.724 178.067 9.724C177.829 9.724 177.602 9.76367 177.388 9.843C177.173 9.92233 176.991 10.0273 176.842 10.158L176.618 9.787C176.804 9.62833 177.028 9.507 177.29 9.423C177.551 9.33433 177.826 9.29 178.116 9.29C178.592 9.29 178.958 9.409 179.215 9.647C179.476 9.88033 179.607 10.2373 179.607 10.718V13H179.131ZM177.864 13.035C177.588 13.035 177.348 12.9907 177.143 12.902C176.942 12.8087 176.788 12.6827 176.681 12.524C176.573 12.3607 176.52 12.174 176.52 11.964C176.52 11.7727 176.564 11.6 176.653 11.446C176.746 11.2873 176.895 11.1613 177.101 11.068C177.311 10.97 177.591 10.921 177.941 10.921H179.208V11.292H177.955C177.6 11.292 177.353 11.355 177.213 11.481C177.077 11.607 177.01 11.7633 177.01 11.95C177.01 12.16 177.091 12.328 177.255 12.454C177.418 12.58 177.647 12.643 177.941 12.643C178.221 12.643 178.461 12.58 178.662 12.454C178.867 12.3233 179.016 12.1367 179.11 11.894L179.222 12.237C179.128 12.4797 178.965 12.6733 178.732 12.818C178.503 12.9627 178.214 13.035 177.864 13.035Z" fill="#004884"/>
<path d="M209.918 1.20001C205.058 1.20001 201.118 5.14002 201.118 10C201.118 14.412 204.368 18.0548 208.603 18.6912V12.3324H206.425V10.0192H208.603V8.48002C208.603 5.93162 209.844 4.81282 211.962 4.81282C212.977 4.81282 213.513 4.88802 213.767 4.92242V6.94162H212.322C211.423 6.94162 211.109 7.79402 211.109 8.75482V10.0192H213.744L213.387 12.3324H211.109V18.71C215.404 18.1272 218.718 14.4548 218.718 10C218.718 5.14002 214.778 1.20001 209.918 1.20001Z" fill="#004884"/>
<path d="M226.067 9.042C225.703 9.042 225.353 8.98367 225.017 8.867C224.686 8.74567 224.429 8.59167 224.247 8.405L224.45 8.006C224.623 8.174 224.854 8.31633 225.143 8.433C225.437 8.545 225.745 8.601 226.067 8.601C226.375 8.601 226.625 8.56367 226.816 8.489C227.012 8.40967 227.154 8.30467 227.243 8.174C227.336 8.04333 227.383 7.89867 227.383 7.74C227.383 7.54867 227.327 7.39467 227.215 7.278C227.108 7.16133 226.965 7.07033 226.788 7.005C226.611 6.935 226.415 6.87433 226.2 6.823C225.985 6.77167 225.771 6.718 225.556 6.662C225.341 6.60133 225.143 6.522 224.961 6.424C224.784 6.326 224.639 6.19767 224.527 6.039C224.42 5.87567 224.366 5.66333 224.366 5.402C224.366 5.15933 224.429 4.93767 224.555 4.737C224.686 4.53167 224.884 4.36833 225.15 4.247C225.416 4.121 225.757 4.058 226.172 4.058C226.447 4.058 226.72 4.09767 226.991 4.177C227.262 4.25167 227.495 4.35667 227.691 4.492L227.516 4.905C227.306 4.765 227.082 4.66233 226.844 4.597C226.611 4.53167 226.384 4.499 226.165 4.499C225.871 4.499 225.628 4.53867 225.437 4.618C225.246 4.69733 225.103 4.80467 225.01 4.94C224.921 5.07067 224.877 5.22 224.877 5.388C224.877 5.57933 224.931 5.73333 225.038 5.85C225.15 5.96667 225.295 6.05767 225.472 6.123C225.654 6.18833 225.852 6.24667 226.067 6.298C226.282 6.34933 226.494 6.40533 226.704 6.466C226.919 6.52667 227.115 6.606 227.292 6.704C227.474 6.79733 227.619 6.92333 227.726 7.082C227.838 7.24067 227.894 7.44833 227.894 7.705C227.894 7.943 227.829 8.16467 227.698 8.37C227.567 8.57067 227.367 8.734 227.096 8.86C226.83 8.98133 226.487 9.042 226.067 9.042ZM230.436 9.035C230.124 9.035 229.851 8.97667 229.617 8.86C229.384 8.74333 229.202 8.56833 229.071 8.335C228.945 8.10167 228.882 7.81 228.882 7.46V5.325H229.379V7.404C229.379 7.796 229.475 8.09233 229.666 8.293C229.862 8.489 230.135 8.587 230.485 8.587C230.742 8.587 230.964 8.53567 231.15 8.433C231.342 8.32567 231.486 8.17167 231.584 7.971C231.687 7.77033 231.738 7.53 231.738 7.25V5.325H232.235V9H231.759V7.992L231.836 8.174C231.72 8.44467 231.538 8.657 231.29 8.811C231.048 8.96033 230.763 9.035 230.436 9.035ZM235.518 9.035C235.2 9.035 234.913 8.96267 234.657 8.818C234.4 8.66867 234.195 8.45633 234.041 8.181C233.891 7.901 233.817 7.56033 233.817 7.159C233.817 6.75767 233.891 6.41933 234.041 6.144C234.19 5.864 234.393 5.65167 234.65 5.507C234.906 5.36233 235.196 5.29 235.518 5.29C235.868 5.29 236.18 5.36933 236.456 5.528C236.736 5.682 236.955 5.90133 237.114 6.186C237.272 6.466 237.352 6.79033 237.352 7.159C237.352 7.53233 237.272 7.859 237.114 8.139C236.955 8.419 236.736 8.63833 236.456 8.797C236.18 8.95567 235.868 9.035 235.518 9.035ZM233.621 10.358V5.325H234.097V6.431L234.048 7.166L234.118 7.908V10.358H233.621ZM235.483 8.594C235.744 8.594 235.977 8.53567 236.183 8.419C236.388 8.29767 236.551 8.12967 236.673 7.915C236.794 7.69567 236.855 7.44367 236.855 7.159C236.855 6.87433 236.794 6.62467 236.673 6.41C236.551 6.19533 236.388 6.02733 236.183 5.906C235.977 5.78467 235.744 5.724 235.483 5.724C235.221 5.724 234.986 5.78467 234.776 5.906C234.57 6.02733 234.407 6.19533 234.286 6.41C234.169 6.62467 234.111 6.87433 234.111 7.159C234.111 7.44367 234.169 7.69567 234.286 7.915C234.407 8.12967 234.57 8.29767 234.776 8.419C234.986 8.53567 235.221 8.594 235.483 8.594ZM239.926 9.035C239.543 9.035 239.207 8.95567 238.918 8.797C238.628 8.63367 238.402 8.412 238.239 8.132C238.075 7.84733 237.994 7.523 237.994 7.159C237.994 6.795 238.071 6.473 238.225 6.193C238.383 5.913 238.598 5.69367 238.869 5.535C239.144 5.37167 239.452 5.29 239.793 5.29C240.138 5.29 240.444 5.36933 240.71 5.528C240.98 5.682 241.193 5.90133 241.347 6.186C241.501 6.466 241.578 6.79033 241.578 7.159C241.578 7.18233 241.575 7.208 241.571 7.236C241.571 7.25933 241.571 7.285 241.571 7.313H238.372V6.942H241.305L241.109 7.089C241.109 6.823 241.05 6.58733 240.934 6.382C240.822 6.172 240.668 6.00867 240.472 5.892C240.276 5.77533 240.049 5.717 239.793 5.717C239.541 5.717 239.314 5.77533 239.114 5.892C238.913 6.00867 238.757 6.172 238.645 6.382C238.533 6.592 238.477 6.83233 238.477 7.103V7.18C238.477 7.46 238.537 7.70733 238.659 7.922C238.785 8.132 238.957 8.29767 239.177 8.419C239.401 8.53567 239.655 8.594 239.94 8.594C240.164 8.594 240.371 8.55433 240.563 8.475C240.759 8.39567 240.927 8.27433 241.067 8.111L241.347 8.433C241.183 8.629 240.978 8.77833 240.731 8.881C240.488 8.98367 240.22 9.035 239.926 9.035ZM242.589 9V5.325H243.065V6.326L243.016 6.151C243.119 5.871 243.292 5.65867 243.534 5.514C243.777 5.36467 244.078 5.29 244.437 5.29V5.773C244.419 5.773 244.4 5.773 244.381 5.773C244.363 5.76833 244.344 5.766 244.325 5.766C243.938 5.766 243.635 5.885 243.415 6.123C243.196 6.35633 243.086 6.69 243.086 7.124V9H242.589ZM245.344 9V5.325H245.841V9H245.344ZM245.596 4.513C245.494 4.513 245.407 4.478 245.337 4.408C245.267 4.338 245.232 4.254 245.232 4.156C245.232 4.058 245.267 3.97633 245.337 3.911C245.407 3.841 245.494 3.806 245.596 3.806C245.699 3.806 245.785 3.83867 245.855 3.904C245.925 3.96933 245.96 4.051 245.96 4.149C245.96 4.25167 245.925 4.338 245.855 4.408C245.79 4.478 245.704 4.513 245.596 4.513ZM249.1 5.29C249.399 5.29 249.66 5.34833 249.884 5.465C250.113 5.577 250.29 5.74967 250.416 5.983C250.547 6.21633 250.612 6.51033 250.612 6.865V9H250.115V6.914C250.115 6.52667 250.017 6.235 249.821 6.039C249.63 5.83833 249.359 5.738 249.009 5.738C248.748 5.738 248.519 5.79167 248.323 5.899C248.132 6.00167 247.982 6.15333 247.875 6.354C247.772 6.55 247.721 6.788 247.721 7.068V9H247.224V5.325H247.7V6.333L247.623 6.144C247.74 5.878 247.926 5.67033 248.183 5.521C248.44 5.367 248.745 5.29 249.1 5.29ZM253.117 9.035C252.771 9.035 252.505 8.94167 252.319 8.755C252.132 8.56833 252.039 8.30467 252.039 7.964V4.513H252.536V7.936C252.536 8.15067 252.589 8.31633 252.697 8.433C252.809 8.54967 252.967 8.608 253.173 8.608C253.392 8.608 253.574 8.545 253.719 8.419L253.894 8.776C253.796 8.86467 253.677 8.93 253.537 8.972C253.401 9.014 253.261 9.035 253.117 9.035ZM251.381 5.738V5.325H253.656V5.738H251.381ZM256.229 9.035C255.847 9.035 255.511 8.95567 255.221 8.797C254.932 8.63367 254.706 8.412 254.542 8.132C254.379 7.84733 254.297 7.523 254.297 7.159C254.297 6.795 254.374 6.473 254.528 6.193C254.687 5.913 254.902 5.69367 255.172 5.535C255.448 5.37167 255.756 5.29 256.096 5.29C256.442 5.29 256.747 5.36933 257.013 5.528C257.284 5.682 257.496 5.90133 257.65 6.186C257.804 6.466 257.881 6.79033 257.881 7.159C257.881 7.18233 257.879 7.208 257.874 7.236C257.874 7.25933 257.874 7.285 257.874 7.313H254.675V6.942H257.608L257.412 7.089C257.412 6.823 257.354 6.58733 257.237 6.382C257.125 6.172 256.971 6.00867 256.775 5.892C256.579 5.77533 256.353 5.717 256.096 5.717C255.844 5.717 255.618 5.77533 255.417 5.892C255.217 6.00867 255.06 6.172 254.948 6.382C254.836 6.592 254.78 6.83233 254.78 7.103V7.18C254.78 7.46 254.841 7.70733 254.962 7.922C255.088 8.132 255.261 8.29767 255.48 8.419C255.704 8.53567 255.959 8.594 256.243 8.594C256.467 8.594 256.675 8.55433 256.866 8.475C257.062 8.39567 257.23 8.27433 257.37 8.111L257.65 8.433C257.487 8.629 257.282 8.77833 257.034 8.881C256.792 8.98367 256.523 9.035 256.229 9.035ZM260.769 5.29C261.068 5.29 261.329 5.34833 261.553 5.465C261.782 5.577 261.959 5.74967 262.085 5.983C262.216 6.21633 262.281 6.51033 262.281 6.865V9H261.784V6.914C261.784 6.52667 261.686 6.235 261.49 6.039C261.299 5.83833 261.028 5.738 260.678 5.738C260.417 5.738 260.188 5.79167 259.992 5.899C259.801 6.00167 259.651 6.15333 259.544 6.354C259.441 6.55 259.39 6.788 259.39 7.068V9H258.893V5.325H259.369V6.333L259.292 6.144C259.409 5.878 259.595 5.67033 259.852 5.521C260.109 5.367 260.414 5.29 260.769 5.29ZM265.087 9.035C264.737 9.035 264.422 8.95567 264.142 8.797C263.866 8.63833 263.649 8.419 263.491 8.139C263.332 7.85433 263.253 7.52767 263.253 7.159C263.253 6.78567 263.332 6.459 263.491 6.179C263.649 5.899 263.866 5.682 264.142 5.528C264.422 5.36933 264.737 5.29 265.087 5.29C265.409 5.29 265.696 5.36233 265.948 5.507C266.204 5.65167 266.407 5.864 266.557 6.144C266.711 6.41933 266.788 6.75767 266.788 7.159C266.788 7.55567 266.713 7.894 266.564 8.174C266.414 8.454 266.211 8.66867 265.955 8.818C265.703 8.96267 265.413 9.035 265.087 9.035ZM265.122 8.594C265.383 8.594 265.616 8.53567 265.822 8.419C266.032 8.29767 266.195 8.12967 266.312 7.915C266.433 7.69567 266.494 7.44367 266.494 7.159C266.494 6.86967 266.433 6.61767 266.312 6.403C266.195 6.18833 266.032 6.02267 265.822 5.906C265.616 5.78467 265.383 5.724 265.122 5.724C264.865 5.724 264.634 5.78467 264.429 5.906C264.223 6.02267 264.06 6.18833 263.939 6.403C263.817 6.61767 263.757 6.86967 263.757 7.159C263.757 7.44367 263.817 7.69567 263.939 7.915C264.06 8.12967 264.223 8.29767 264.429 8.419C264.634 8.53567 264.865 8.594 265.122 8.594ZM266.508 9V7.894L266.557 7.152L266.487 6.41V3.806H266.984V9H266.508ZM269.929 9.035C269.546 9.035 269.21 8.95567 268.921 8.797C268.631 8.63367 268.405 8.412 268.242 8.132C268.078 7.84733 267.997 7.523 267.997 7.159C267.997 6.795 268.074 6.473 268.228 6.193C268.386 5.913 268.601 5.69367 268.872 5.535C269.147 5.37167 269.455 5.29 269.796 5.29C270.141 5.29 270.447 5.36933 270.713 5.528C270.983 5.682 271.196 5.90133 271.35 6.186C271.504 6.466 271.581 6.79033 271.581 7.159C271.581 7.18233 271.578 7.208 271.574 7.236C271.574 7.25933 271.574 7.285 271.574 7.313H268.375V6.942H271.308L271.112 7.089C271.112 6.823 271.053 6.58733 270.937 6.382C270.825 6.172 270.671 6.00867 270.475 5.892C270.279 5.77533 270.052 5.717 269.796 5.717C269.544 5.717 269.317 5.77533 269.117 5.892C268.916 6.00867 268.76 6.172 268.648 6.382C268.536 6.592 268.48 6.83233 268.48 7.103V7.18C268.48 7.46 268.54 7.70733 268.662 7.922C268.788 8.132 268.96 8.29767 269.18 8.419C269.404 8.53567 269.658 8.594 269.943 8.594C270.167 8.594 270.374 8.55433 270.566 8.475C270.762 8.39567 270.93 8.27433 271.07 8.111L271.35 8.433C271.186 8.629 270.981 8.77833 270.734 8.881C270.491 8.98367 270.223 9.035 269.929 9.035ZM274.468 5.29C274.767 5.29 275.028 5.34833 275.252 5.465C275.481 5.577 275.658 5.74967 275.784 5.983C275.915 6.21633 275.98 6.51033 275.98 6.865V9H275.483V6.914C275.483 6.52667 275.385 6.235 275.189 6.039C274.998 5.83833 274.727 5.738 274.377 5.738C274.116 5.738 273.887 5.79167 273.691 5.899C273.5 6.00167 273.351 6.15333 273.243 6.354C273.141 6.55 273.089 6.788 273.089 7.068V9H272.592V5.325H273.068V6.333L272.991 6.144C273.108 5.878 273.295 5.67033 273.551 5.521C273.808 5.367 274.114 5.29 274.468 5.29ZM278.849 9.035C278.485 9.035 278.158 8.95567 277.869 8.797C277.584 8.63367 277.36 8.412 277.197 8.132C277.033 7.84733 276.952 7.523 276.952 7.159C276.952 6.79033 277.033 6.466 277.197 6.186C277.36 5.906 277.584 5.68667 277.869 5.528C278.158 5.36933 278.485 5.29 278.849 5.29C279.161 5.29 279.444 5.35067 279.696 5.472C279.948 5.59333 280.146 5.77533 280.291 6.018L279.92 6.27C279.794 6.08333 279.637 5.94567 279.451 5.857C279.264 5.76833 279.061 5.724 278.842 5.724C278.58 5.724 278.345 5.78467 278.135 5.906C277.925 6.02267 277.759 6.18833 277.638 6.403C277.516 6.61767 277.456 6.86967 277.456 7.159C277.456 7.44833 277.516 7.70033 277.638 7.915C277.759 8.12967 277.925 8.29767 278.135 8.419C278.345 8.53567 278.58 8.594 278.842 8.594C279.061 8.594 279.264 8.54967 279.451 8.461C279.637 8.37233 279.794 8.237 279.92 8.055L280.291 8.307C280.146 8.545 279.948 8.727 279.696 8.853C279.444 8.97433 279.161 9.035 278.849 9.035ZM281.212 9V5.325H281.709V9H281.212ZM281.464 4.513C281.362 4.513 281.275 4.478 281.205 4.408C281.135 4.338 281.1 4.254 281.1 4.156C281.1 4.058 281.135 3.97633 281.205 3.911C281.275 3.841 281.362 3.806 281.464 3.806C281.567 3.806 281.653 3.83867 281.723 3.904C281.793 3.96933 281.828 4.051 281.828 4.149C281.828 4.25167 281.793 4.338 281.723 4.408C281.658 4.478 281.572 4.513 281.464 4.513ZM285.395 9V8.188L285.374 8.055V6.697C285.374 6.38433 285.286 6.144 285.108 5.976C284.936 5.808 284.677 5.724 284.331 5.724C284.093 5.724 283.867 5.76367 283.652 5.843C283.438 5.92233 283.256 6.02733 283.106 6.158L282.882 5.787C283.069 5.62833 283.293 5.507 283.554 5.423C283.816 5.33433 284.091 5.29 284.38 5.29C284.856 5.29 285.223 5.409 285.479 5.647C285.741 5.88033 285.871 6.23733 285.871 6.718V9H285.395ZM284.128 9.035C283.853 9.035 283.613 8.99067 283.407 8.902C283.207 8.80867 283.053 8.68267 282.945 8.524C282.838 8.36067 282.784 8.174 282.784 7.964C282.784 7.77267 282.829 7.6 282.917 7.446C283.011 7.28733 283.16 7.16133 283.365 7.068C283.575 6.97 283.855 6.921 284.205 6.921H285.472V7.292H284.219C283.865 7.292 283.617 7.355 283.477 7.481C283.342 7.607 283.274 7.76333 283.274 7.95C283.274 8.16 283.356 8.328 283.519 8.454C283.683 8.58 283.911 8.643 284.205 8.643C284.485 8.643 284.726 8.58 284.926 8.454C285.132 8.32333 285.281 8.13667 285.374 7.894L285.486 8.237C285.393 8.47967 285.23 8.67333 284.996 8.818C284.768 8.96267 284.478 9.035 284.128 9.035ZM225.178 15.473H227.768V15.921H225.178V15.473ZM225.234 18H224.716V13.1H228.076V13.548H225.234V18ZM229.041 18V14.325H229.538V18H229.041ZM229.293 13.513C229.19 13.513 229.104 13.478 229.034 13.408C228.964 13.338 228.929 13.254 228.929 13.156C228.929 13.058 228.964 12.9763 229.034 12.911C229.104 12.841 229.19 12.806 229.293 12.806C229.395 12.806 229.482 12.8387 229.552 12.904C229.622 12.9693 229.657 13.051 229.657 13.149C229.657 13.2517 229.622 13.338 229.552 13.408C229.486 13.478 229.4 13.513 229.293 13.513ZM232.796 14.29C233.095 14.29 233.356 14.3483 233.58 14.465C233.809 14.577 233.986 14.7497 234.112 14.983C234.243 15.2163 234.308 15.5103 234.308 15.865V18H233.811V15.914C233.811 15.5267 233.713 15.235 233.517 15.039C233.326 14.8383 233.055 14.738 232.705 14.738C232.444 14.738 232.215 14.7917 232.019 14.899C231.828 15.0017 231.679 15.1533 231.571 15.354C231.469 15.55 231.417 15.788 231.417 16.068V18H230.92V14.325H231.396V15.333L231.319 15.144C231.436 14.878 231.623 14.6703 231.879 14.521C232.136 14.367 232.442 14.29 232.796 14.29ZM237.954 18V17.188L237.933 17.055V15.697C237.933 15.3843 237.844 15.144 237.667 14.976C237.494 14.808 237.235 14.724 236.89 14.724C236.652 14.724 236.426 14.7637 236.211 14.843C235.996 14.9223 235.814 15.0273 235.665 15.158L235.441 14.787C235.628 14.6283 235.852 14.507 236.113 14.423C236.374 14.3343 236.65 14.29 236.939 14.29C237.415 14.29 237.781 14.409 238.038 14.647C238.299 14.8803 238.43 15.2373 238.43 15.718V18H237.954ZM236.687 18.035C236.412 18.035 236.171 17.9907 235.966 17.902C235.765 17.8087 235.611 17.6827 235.504 17.524C235.397 17.3607 235.343 17.174 235.343 16.964C235.343 16.7727 235.387 16.6 235.476 16.446C235.569 16.2873 235.719 16.1613 235.924 16.068C236.134 15.97 236.414 15.921 236.764 15.921H238.031V16.292H236.778C236.423 16.292 236.176 16.355 236.036 16.481C235.901 16.607 235.833 16.7633 235.833 16.95C235.833 17.16 235.915 17.328 236.078 17.454C236.241 17.58 236.47 17.643 236.764 17.643C237.044 17.643 237.284 17.58 237.485 17.454C237.69 17.3233 237.84 17.1367 237.933 16.894L238.045 17.237C237.952 17.4797 237.788 17.6733 237.555 17.818C237.326 17.9627 237.037 18.035 236.687 18.035ZM241.656 14.29C241.954 14.29 242.216 14.3483 242.44 14.465C242.668 14.577 242.846 14.7497 242.972 14.983C243.102 15.2163 243.168 15.5103 243.168 15.865V18H242.671V15.914C242.671 15.5267 242.573 15.235 242.377 15.039C242.185 14.8383 241.915 14.738 241.565 14.738C241.303 14.738 241.075 14.7917 240.879 14.899C240.687 15.0017 240.538 15.1533 240.431 15.354C240.328 15.55 240.277 15.788 240.277 16.068V18H239.78V14.325H240.256V15.333L240.179 15.144C240.295 14.878 240.482 14.6703 240.739 14.521C240.995 14.367 241.301 14.29 241.656 14.29ZM246.036 18.035C245.672 18.035 245.346 17.9557 245.056 17.797C244.772 17.6337 244.548 17.412 244.384 17.132C244.221 16.8473 244.139 16.523 244.139 16.159C244.139 15.7903 244.221 15.466 244.384 15.186C244.548 14.906 244.772 14.6867 245.056 14.528C245.346 14.3693 245.672 14.29 246.036 14.29C246.349 14.29 246.631 14.3507 246.883 14.472C247.135 14.5933 247.334 14.7753 247.478 15.018L247.107 15.27C246.981 15.0833 246.825 14.9457 246.638 14.857C246.452 14.7683 246.249 14.724 246.029 14.724C245.768 14.724 245.532 14.7847 245.322 14.906C245.112 15.0227 244.947 15.1883 244.825 15.403C244.704 15.6177 244.643 15.8697 244.643 16.159C244.643 16.4483 244.704 16.7003 244.825 16.915C244.947 17.1297 245.112 17.2977 245.322 17.419C245.532 17.5357 245.768 17.594 246.029 17.594C246.249 17.594 246.452 17.5497 246.638 17.461C246.825 17.3723 246.981 17.237 247.107 17.055L247.478 17.307C247.334 17.545 247.135 17.727 246.883 17.853C246.631 17.9743 246.349 18.035 246.036 18.035ZM248.4 18V14.325H248.897V18H248.4ZM248.652 13.513C248.549 13.513 248.463 13.478 248.393 13.408C248.323 13.338 248.288 13.254 248.288 13.156C248.288 13.058 248.323 12.9763 248.393 12.911C248.463 12.841 248.549 12.806 248.652 12.806C248.755 12.806 248.841 12.8387 248.911 12.904C248.981 12.9693 249.016 13.051 249.016 13.149C249.016 13.2517 248.981 13.338 248.911 13.408C248.846 13.478 248.759 13.513 248.652 13.513ZM251.841 18.035C251.458 18.035 251.122 17.9557 250.833 17.797C250.543 17.6337 250.317 17.412 250.154 17.132C249.99 16.8473 249.909 16.523 249.909 16.159C249.909 15.795 249.986 15.473 250.14 15.193C250.298 14.913 250.513 14.6937 250.784 14.535C251.059 14.3717 251.367 14.29 251.708 14.29C252.053 14.29 252.359 14.3693 252.625 14.528C252.895 14.682 253.108 14.9013 253.262 15.186C253.416 15.466 253.493 15.7903 253.493 16.159C253.493 16.1823 253.49 16.208 253.486 16.236C253.486 16.2593 253.486 16.285 253.486 16.313H250.287V15.942H253.22L253.024 16.089C253.024 15.823 252.965 15.5873 252.849 15.382C252.737 15.172 252.583 15.0087 252.387 14.892C252.191 14.7753 251.964 14.717 251.708 14.717C251.456 14.717 251.229 14.7753 251.029 14.892C250.828 15.0087 250.672 15.172 250.56 15.382C250.448 15.592 250.392 15.8323 250.392 16.103V16.18C250.392 16.46 250.452 16.7073 250.574 16.922C250.7 17.132 250.872 17.2977 251.092 17.419C251.316 17.5357 251.57 17.594 251.855 17.594C252.079 17.594 252.286 17.5543 252.478 17.475C252.674 17.3957 252.842 17.2743 252.982 17.111L253.262 17.433C253.098 17.629 252.893 17.7783 252.646 17.881C252.403 17.9837 252.135 18.035 251.841 18.035ZM254.504 18V14.325H254.98V15.326L254.931 15.151C255.034 14.871 255.207 14.6587 255.449 14.514C255.692 14.3647 255.993 14.29 256.352 14.29V14.773C256.334 14.773 256.315 14.773 256.296 14.773C256.278 14.7683 256.259 14.766 256.24 14.766C255.853 14.766 255.55 14.885 255.33 15.123C255.111 15.3563 255.001 15.69 255.001 16.124V18H254.504ZM259.289 18V17.188L259.268 17.055V15.697C259.268 15.3843 259.179 15.144 259.002 14.976C258.829 14.808 258.57 14.724 258.225 14.724C257.987 14.724 257.761 14.7637 257.546 14.843C257.331 14.9223 257.149 15.0273 257 15.158L256.776 14.787C256.963 14.6283 257.187 14.507 257.448 14.423C257.709 14.3343 257.985 14.29 258.274 14.29C258.75 14.29 259.116 14.409 259.373 14.647C259.634 14.8803 259.765 15.2373 259.765 15.718V18H259.289ZM258.022 18.035C257.747 18.035 257.506 17.9907 257.301 17.902C257.1 17.8087 256.946 17.6827 256.839 17.524C256.732 17.3607 256.678 17.174 256.678 16.964C256.678 16.7727 256.722 16.6 256.811 16.446C256.904 16.2873 257.054 16.1613 257.259 16.068C257.469 15.97 257.749 15.921 258.099 15.921H259.366V16.292H258.113C257.758 16.292 257.511 16.355 257.371 16.481C257.236 16.607 257.168 16.7633 257.168 16.95C257.168 17.16 257.25 17.328 257.413 17.454C257.576 17.58 257.805 17.643 258.099 17.643C258.379 17.643 258.619 17.58 258.82 17.454C259.025 17.3233 259.175 17.1367 259.268 16.894L259.38 17.237C259.287 17.4797 259.123 17.6733 258.89 17.818C258.661 17.9627 258.372 18.035 258.022 18.035ZM264.41 18.035C264.06 18.035 263.745 17.9557 263.465 17.797C263.189 17.6383 262.972 17.419 262.814 17.139C262.655 16.8543 262.576 16.5277 262.576 16.159C262.576 15.7857 262.655 15.459 262.814 15.179C262.972 14.899 263.189 14.682 263.465 14.528C263.745 14.3693 264.06 14.29 264.41 14.29C264.732 14.29 265.019 14.3623 265.271 14.507C265.527 14.6517 265.73 14.864 265.88 15.144C266.034 15.4193 266.111 15.7577 266.111 16.159C266.111 16.5557 266.036 16.894 265.887 17.174C265.737 17.454 265.534 17.6687 265.278 17.818C265.026 17.9627 264.736 18.035 264.41 18.035ZM264.445 17.594C264.706 17.594 264.939 17.5357 265.145 17.419C265.355 17.2977 265.518 17.1297 265.635 16.915C265.756 16.6957 265.817 16.4437 265.817 16.159C265.817 15.8697 265.756 15.6177 265.635 15.403C265.518 15.1883 265.355 15.0227 265.145 14.906C264.939 14.7847 264.706 14.724 264.445 14.724C264.188 14.724 263.957 14.7847 263.752 14.906C263.546 15.0227 263.383 15.1883 263.262 15.403C263.14 15.6177 263.08 15.8697 263.08 16.159C263.08 16.4437 263.14 16.6957 263.262 16.915C263.383 17.1297 263.546 17.2977 263.752 17.419C263.957 17.5357 264.188 17.594 264.445 17.594ZM265.831 18V16.894L265.88 16.152L265.81 15.41V12.806H266.307V18H265.831ZM269.252 18.035C268.869 18.035 268.533 17.9557 268.244 17.797C267.955 17.6337 267.728 17.412 267.565 17.132C267.402 16.8473 267.32 16.523 267.32 16.159C267.32 15.795 267.397 15.473 267.551 15.193C267.71 14.913 267.924 14.6937 268.195 14.535C268.47 14.3717 268.778 14.29 269.119 14.29C269.464 14.29 269.77 14.3693 270.036 14.528C270.307 14.682 270.519 14.9013 270.673 15.186C270.827 15.466 270.904 15.7903 270.904 16.159C270.904 16.1823 270.902 16.208 270.897 16.236C270.897 16.2593 270.897 16.285 270.897 16.313H267.698V15.942H270.631L270.435 16.089C270.435 15.823 270.377 15.5873 270.26 15.382C270.148 15.172 269.994 15.0087 269.798 14.892C269.602 14.7753 269.376 14.717 269.119 14.717C268.867 14.717 268.641 14.7753 268.44 14.892C268.239 15.0087 268.083 15.172 267.971 15.382C267.859 15.592 267.803 15.8323 267.803 16.103V16.18C267.803 16.46 267.864 16.7073 267.985 16.922C268.111 17.132 268.284 17.2977 268.503 17.419C268.727 17.5357 268.981 17.594 269.266 17.594C269.49 17.594 269.698 17.5543 269.889 17.475C270.085 17.3957 270.253 17.2743 270.393 17.111L270.673 17.433C270.51 17.629 270.304 17.7783 270.057 17.881C269.814 17.9837 269.546 18.035 269.252 18.035ZM275.981 18.042C275.612 18.042 275.271 17.9813 274.959 17.86C274.646 17.734 274.375 17.559 274.147 17.335C273.918 17.111 273.738 16.8473 273.608 16.544C273.482 16.2407 273.419 15.9093 273.419 15.55C273.419 15.1907 273.482 14.8593 273.608 14.556C273.738 14.2527 273.918 13.989 274.147 13.765C274.38 13.541 274.653 13.3683 274.966 13.247C275.278 13.121 275.619 13.058 275.988 13.058C276.342 13.058 276.676 13.1187 276.989 13.24C277.301 13.3567 277.565 13.534 277.78 13.772L277.451 14.101C277.25 13.8957 277.028 13.7487 276.786 13.66C276.543 13.5667 276.282 13.52 276.002 13.52C275.708 13.52 275.435 13.5713 275.183 13.674C274.931 13.772 274.711 13.9143 274.525 14.101C274.338 14.283 274.191 14.4977 274.084 14.745C273.981 14.9877 273.93 15.256 273.93 15.55C273.93 15.844 273.981 16.1147 274.084 16.362C274.191 16.6047 274.338 16.8193 274.525 17.006C274.711 17.188 274.931 17.3303 275.183 17.433C275.435 17.531 275.708 17.58 276.002 17.58C276.282 17.58 276.543 17.5333 276.786 17.44C277.028 17.3467 277.25 17.1973 277.451 16.992L277.78 17.321C277.565 17.559 277.301 17.7387 276.989 17.86C276.676 17.9813 276.34 18.042 275.981 18.042ZM280.113 18.035C279.758 18.035 279.438 17.9557 279.154 17.797C278.874 17.6337 278.652 17.412 278.489 17.132C278.325 16.8473 278.244 16.523 278.244 16.159C278.244 15.7903 278.325 15.466 278.489 15.186C278.652 14.906 278.874 14.6867 279.154 14.528C279.434 14.3693 279.753 14.29 280.113 14.29C280.477 14.29 280.799 14.3693 281.079 14.528C281.363 14.6867 281.585 14.906 281.744 15.186C281.907 15.466 281.989 15.7903 281.989 16.159C281.989 16.523 281.907 16.8473 281.744 17.132C281.585 17.412 281.363 17.6337 281.079 17.797C280.794 17.9557 280.472 18.035 280.113 18.035ZM280.113 17.594C280.379 17.594 280.614 17.5357 280.82 17.419C281.025 17.2977 281.186 17.1297 281.303 16.915C281.424 16.6957 281.485 16.4437 281.485 16.159C281.485 15.8697 281.424 15.6177 281.303 15.403C281.186 15.1883 281.025 15.0227 280.82 14.906C280.614 14.7847 280.381 14.724 280.12 14.724C279.858 14.724 279.625 14.7847 279.42 14.906C279.214 15.0227 279.051 15.1883 278.93 15.403C278.808 15.6177 278.748 15.8697 278.748 16.159C278.748 16.4437 278.808 16.6957 278.93 16.915C279.051 17.1297 279.214 17.2977 279.42 17.419C279.625 17.5357 279.856 17.594 280.113 17.594ZM283.003 18V12.806H283.5V18H283.003ZM286.381 18.035C286.027 18.035 285.707 17.9557 285.422 17.797C285.142 17.6337 284.921 17.412 284.757 17.132C284.594 16.8473 284.512 16.523 284.512 16.159C284.512 15.7903 284.594 15.466 284.757 15.186C284.921 14.906 285.142 14.6867 285.422 14.528C285.702 14.3693 286.022 14.29 286.381 14.29C286.745 14.29 287.067 14.3693 287.347 14.528C287.632 14.6867 287.854 14.906 288.012 15.186C288.176 15.466 288.257 15.7903 288.257 16.159C288.257 16.523 288.176 16.8473 288.012 17.132C287.854 17.412 287.632 17.6337 287.347 17.797C287.063 17.9557 286.741 18.035 286.381 18.035ZM286.381 17.594C286.647 17.594 286.883 17.5357 287.088 17.419C287.294 17.2977 287.455 17.1297 287.571 16.915C287.693 16.6957 287.753 16.4437 287.753 16.159C287.753 15.8697 287.693 15.6177 287.571 15.403C287.455 15.1883 287.294 15.0227 287.088 14.906C286.883 14.7847 286.65 14.724 286.388 14.724C286.127 14.724 285.894 14.7847 285.688 14.906C285.483 15.0227 285.32 15.1883 285.198 15.403C285.077 15.6177 285.016 15.8697 285.016 16.159C285.016 16.4437 285.077 16.6957 285.198 16.915C285.32 17.1297 285.483 17.2977 285.688 17.419C285.894 17.5357 286.125 17.594 286.381 17.594ZM293.864 14.29C294.163 14.29 294.422 14.3483 294.641 14.465C294.865 14.577 295.038 14.7497 295.159 14.983C295.285 15.2163 295.348 15.5103 295.348 15.865V18H294.851V15.914C294.851 15.5267 294.758 15.235 294.571 15.039C294.389 14.8383 294.13 14.738 293.794 14.738C293.542 14.738 293.323 14.7917 293.136 14.899C292.954 15.0017 292.812 15.1533 292.709 15.354C292.611 15.55 292.562 15.788 292.562 16.068V18H292.065V15.914C292.065 15.5267 291.972 15.235 291.785 15.039C291.598 14.8383 291.337 14.738 291.001 14.738C290.754 14.738 290.537 14.7917 290.35 14.899C290.163 15.0017 290.019 15.1533 289.916 15.354C289.818 15.55 289.769 15.788 289.769 16.068V18H289.272V14.325H289.748V15.319L289.671 15.144C289.783 14.878 289.963 14.6703 290.21 14.521C290.462 14.367 290.758 14.29 291.099 14.29C291.458 14.29 291.764 14.381 292.016 14.563C292.268 14.7403 292.431 15.0087 292.506 15.368L292.31 15.291C292.417 14.9923 292.606 14.752 292.877 14.57C293.152 14.3833 293.481 14.29 293.864 14.29ZM298.593 18.035C298.271 18.035 297.981 17.9627 297.725 17.818C297.468 17.6687 297.265 17.454 297.116 17.174C296.966 16.894 296.892 16.5557 296.892 16.159C296.892 15.7577 296.966 15.4193 297.116 15.144C297.27 14.864 297.475 14.6517 297.732 14.507C297.988 14.3623 298.275 14.29 298.593 14.29C298.943 14.29 299.255 14.3693 299.531 14.528C299.811 14.682 300.03 14.899 300.189 15.179C300.347 15.459 300.427 15.7857 300.427 16.159C300.427 16.5277 300.347 16.8543 300.189 17.139C300.03 17.419 299.811 17.6383 299.531 17.797C299.255 17.9557 298.943 18.035 298.593 18.035ZM296.696 18V12.806H297.193V15.41L297.123 16.152L297.172 16.894V18H296.696ZM298.558 17.594C298.819 17.594 299.052 17.5357 299.258 17.419C299.463 17.2977 299.626 17.1297 299.748 16.915C299.869 16.6957 299.93 16.4437 299.93 16.159C299.93 15.8697 299.869 15.6177 299.748 15.403C299.626 15.1883 299.463 15.0227 299.258 14.906C299.052 14.7847 298.819 14.724 298.558 14.724C298.296 14.724 298.061 14.7847 297.851 14.906C297.645 15.0227 297.482 15.1883 297.361 15.403C297.244 15.6177 297.186 15.8697 297.186 16.159C297.186 16.4437 297.244 16.6957 297.361 16.915C297.482 17.1297 297.645 17.2977 297.851 17.419C298.061 17.5357 298.296 17.594 298.558 17.594ZM301.44 18V14.325H301.937V18H301.44ZM301.692 13.513C301.589 13.513 301.503 13.478 301.433 13.408C301.363 13.338 301.328 13.254 301.328 13.156C301.328 13.058 301.363 12.9763 301.433 12.911C301.503 12.841 301.589 12.806 301.692 12.806C301.795 12.806 301.881 12.8387 301.951 12.904C302.021 12.9693 302.056 13.051 302.056 13.149C302.056 13.2517 302.021 13.338 301.951 13.408C301.886 13.478 301.799 13.513 301.692 13.513ZM305.623 18V17.188L305.602 17.055V15.697C305.602 15.3843 305.513 15.144 305.336 14.976C305.163 14.808 304.904 14.724 304.559 14.724C304.321 14.724 304.094 14.7637 303.88 14.843C303.665 14.9223 303.483 15.0273 303.334 15.158L303.11 14.787C303.296 14.6283 303.52 14.507 303.782 14.423C304.043 14.3343 304.318 14.29 304.608 14.29C305.084 14.29 305.45 14.409 305.707 14.647C305.968 14.8803 306.099 15.2373 306.099 15.718V18H305.623ZM304.356 18.035C304.08 18.035 303.84 17.9907 303.635 17.902C303.434 17.8087 303.28 17.6827 303.173 17.524C303.065 17.3607 303.012 17.174 303.012 16.964C303.012 16.7727 303.056 16.6 303.145 16.446C303.238 16.2873 303.387 16.1613 303.593 16.068C303.803 15.97 304.083 15.921 304.433 15.921H305.7V16.292H304.447C304.092 16.292 303.845 16.355 303.705 16.481C303.569 16.607 303.502 16.7633 303.502 16.95C303.502 17.16 303.583 17.328 303.747 17.454C303.91 17.58 304.139 17.643 304.433 17.643C304.713 17.643 304.953 17.58 305.154 17.454C305.359 17.3233 305.508 17.1367 305.602 16.894L305.714 17.237C305.62 17.4797 305.457 17.6733 305.224 17.818C304.995 17.9627 304.706 18.035 304.356 18.035Z" fill="#004884"/>
</svg>
